<?xml version="1.0" standalone="no"?>
<!DOCTYPE svg PUBLIC "-//W3C//DTD SVG 20010904//EN"
 "http://www.w3.org/TR/2001/REC-SVG-20010904/DTD/svg10.dtd">
<svg version="1.0" xmlns="http://www.w3.org/2000/svg"
 width="1121.000000pt" height="233.000000pt" viewBox="0 0 1121.000000 233.000000"
 preserveAspectRatio="xMidYMid meet">

<g transform="translate(0.000000,233.000000) scale(0.100000,-0.100000)"
fill="#000000" stroke="none">
<path d="M590 1165 l0 -1165 1310 0 1310 0 0 1165 0 1165 -1310 0 -1310 0 0
-1165z m1598 676 c40 -11 110 -26 155 -33 l82 -13 -135 -6 c-297 -15 -575 -84
-795 -196 -81 -41 -225 -135 -250 -163 -10 -11 -22 -20 -27 -20 -23 0 110 113
202 172 187 119 440 207 642 224 80 7 81 8 58 23 -14 9 -41 31 -60 49 l-35 34
45 -26 c25 -13 78 -34 118 -45z m-766 -679 c26 -64 79 -193 117 -287 73 -179
74 -192 16 -177 -21 6 -32 20 -49 62 l-22 55 -162 3 c-126 2 -162 0 -162 -10
0 -7 -11 -37 -25 -66 -22 -48 -27 -52 -55 -50 -40 3 -44 9 -26 50 8 18 38 89
66 158 103 252 143 345 152 357 9 11 36 18 83 21 17 2 28 -18 67 -116z m673
84 c35 -23 52 -54 59 -108 l6 -48 -40 0 c-39 0 -40 1 -40 35 0 25 -8 44 -25
60 -23 24 -31 25 -133 25 -124 0 -169 -12 -183 -47 -10 -27 -10 -300 0 -348
11 -52 55 -67 193 -63 137 4 148 10 156 87 4 50 5 51 38 51 34 0 34 0 34 -49
0 -68 -17 -109 -54 -129 -25 -14 -59 -17 -186 -17 -175 0 -206 9 -245 75 -18
32 -20 52 -20 222 l0 187 30 30 c45 48 107 61 272 56 84 -2 119 -7 138 -19z
m583 4 c39 -15 62 -54 62 -110 0 -39 -1 -40 -33 -40 -31 0 -34 3 -43 42 -13
63 -33 69 -191 66 -186 -4 -178 6 -178 -228 0 -236 -10 -225 190 -225 174 0
177 2 183 100 l4 65 -101 0 -101 0 0 30 0 30 135 0 135 0 -1 -87 c-1 -178 -26
-198 -249 -198 -123 0 -152 3 -189 19 -69 32 -76 53 -79 256 -2 152 -1 179 15
209 24 46 59 70 119 81 64 12 280 5 322 -10z"/>
<path d="M1253 1033 c-34 -87 -61 -159 -59 -161 2 -1 62 -1 133 0 l130 3 -62
155 c-35 85 -67 155 -71 157 -5 1 -37 -68 -71 -154z"/>
</g>
</svg>
